<svg width="110" height="140" viewBox="0 0 110 140" fill="none" xmlns="http://www.w3.org/2000/svg">
<g clip-path="url(#paint0_diamond_10_43_clip_path)" data-figma-skip-parse="true"><g transform="matrix(0.0678261 0.0771429 -0.0983332 0.0583366 24.7826 32.8571)"><rect x="0" y="0" width="1384.2" height="632.405" fill="url(#paint0_diamond_10_43)" opacity="1" shape-rendering="crispEdges"/><rect x="0" y="0" width="1384.2" height="632.405" transform="scale(1 -1)" fill="url(#paint0_diamond_10_43)" opacity="1" shape-rendering="crispEdges"/><rect x="0" y="0" width="1384.2" height="632.405" transform="scale(-1 1)" fill="url(#paint0_diamond_10_43)" opacity="1" shape-rendering="crispEdges"/><rect x="0" y="0" width="1384.2" height="632.405" transform="scale(-1)" fill="url(#paint0_diamond_10_43)" opacity="1" shape-rendering="crispEdges"/></g></g><path d="M75.8239 43H105.96V136.091H74.8693C65.7481 136.091 57.9148 134.227 51.3693 130.5C44.8239 126.803 39.8087 121.485 36.3239 114.545C32.8087 107.636 31.0511 99.3485 31.0511 89.6818C31.0511 79.9848 32.8239 71.6515 36.3693 64.6818C39.8845 57.7121 44.9754 52.3485 51.642 48.5909C58.3087 44.8636 66.3693 43 75.8239 43ZM91.9148 55.2727H76.5966C69.5057 55.2727 63.6117 56.6061 58.9148 59.2727C54.2178 61.9697 50.7026 65.8636 48.3693 70.9545C46.036 76.0758 44.8693 82.3182 44.8693 89.6818C44.8693 96.9848 46.036 103.182 48.3693 108.273C50.6723 113.364 54.1117 117.227 58.6875 119.864C63.2633 122.5 68.9451 123.818 75.733 123.818H91.9148V55.2727Z" data-figma-gradient-fill="{&#34;type&#34;:&#34;GRADIENT_DIAMOND&#34;,&#34;stops&#34;:[{&#34;color&#34;:{&#34;r&#34;:0.98823529481887817,&#34;g&#34;:0.82745099067687988,&#34;b&#34;:0.30196079611778259,&#34;a&#34;:1.0},&#34;position&#34;:0.0},{&#34;color&#34;:{&#34;r&#34;:0.98431372642517090,&#34;g&#34;:0.74901962280273438,&#34;b&#34;:0.14117647707462311,&#34;a&#34;:1.0},&#34;position&#34;:0.50},{&#34;color&#34;:{&#34;r&#34;:0.85098040103912354,&#34;g&#34;:0.46666666865348816,&#34;b&#34;:0.023529412224888802,&#34;a&#34;:1.0},&#34;position&#34;:1.0}],&#34;stopsVar&#34;:[{&#34;color&#34;:{&#34;r&#34;:0.98823529481887817,&#34;g&#34;:0.82745099067687988,&#34;b&#34;:0.30196079611778259,&#34;a&#34;:1.0},&#34;position&#34;:0.0},{&#34;color&#34;:{&#34;r&#34;:0.98431372642517090,&#34;g&#34;:0.74901962280273438,&#34;b&#34;:0.14117647707462311,&#34;a&#34;:1.0},&#34;position&#34;:0.50},{&#34;color&#34;:{&#34;r&#34;:0.85098040103912354,&#34;g&#34;:0.46666666865348816,&#34;b&#34;:0.023529412224888802,&#34;a&#34;:1.0},&#34;position&#34;:1.0}],&#34;transform&#34;:{&#34;m00&#34;:135.65217590332031,&#34;m01&#34;:-196.66644287109375,&#34;m02&#34;:55.289745330810547,&#34;m10&#34;:154.28570556640625,&#34;m11&#34;:116.67315673828125,&#34;m12&#34;:-102.62228393554688},&#34;opacity&#34;:1.0,&#34;blendMode&#34;:&#34;NORMAL&#34;,&#34;visible&#34;:true}"/>
<path d="M105.96 43H107.46V41.5H105.96V43ZM105.96 136.091V137.591H107.46V136.091H105.96ZM51.3693 130.5L52.1116 129.197L52.107 129.194L51.3693 130.5ZM36.3239 114.545L37.6643 113.872L37.6608 113.865L36.3239 114.545ZM36.3693 64.6818L37.7063 65.3619L37.7086 65.3573L36.3693 64.6818ZM51.642 48.5909L50.91 47.2816L50.9055 47.2842L51.642 48.5909ZM91.9148 55.2727H93.4148V53.7727H91.9148V55.2727ZM58.9148 59.2727L58.1742 57.9683L58.1679 57.9719L58.9148 59.2727ZM48.3693 70.9545L47.0057 70.3296L47.0043 70.3326L48.3693 70.9545ZM48.3693 108.273L49.736 107.654L49.7329 107.648L48.3693 108.273ZM58.6875 119.864L59.4363 118.564V118.564L58.6875 119.864ZM91.9148 123.818V125.318H93.4148V123.818H91.9148ZM75.8239 43V44.5H105.96V43V41.5H75.8239V43ZM105.96 43H104.46V136.091H105.96H107.46V43H105.96ZM105.96 136.091V134.591H74.8693V136.091V137.591H105.96V136.091ZM74.8693 136.091V134.591C65.9536 134.591 58.3876 132.77 52.1116 129.197L51.3693 130.5L50.6271 131.803C57.4419 135.684 65.5426 137.591 74.8693 137.591V136.091ZM51.3693 130.5L52.107 129.194C45.8298 125.648 41.0202 120.555 37.6643 113.872L36.3239 114.545L34.9834 115.219C38.5972 122.415 43.818 127.958 50.6316 131.806L51.3693 130.5ZM36.3239 114.545L37.6608 113.865C34.276 107.213 32.5511 99.1692 32.5511 89.6818H31.0511H29.5511C29.5511 99.5277 31.3414 108.06 34.9869 115.226L36.3239 114.545ZM31.0511 89.6818H32.5511C32.5511 80.1656 34.2907 72.0764 37.7063 65.3619L36.3693 64.6818L35.0324 64.0017C31.3571 71.2267 29.5511 79.8041 29.5511 89.6818H31.0511ZM36.3693 64.6818L37.7086 65.3573C41.0927 58.6475 45.9764 53.5061 52.3786 49.8976L51.642 48.5909L50.9055 47.2842C43.9743 51.1908 38.6762 56.7768 35.03 64.0063L36.3693 64.6818ZM51.642 48.5909L52.374 49.9002C58.7697 46.3244 66.5653 44.5 75.8239 44.5V43V41.5C66.1733 41.5 57.8477 43.4029 50.91 47.2816L51.642 48.5909ZM91.9148 55.2727V53.7727H76.5966V55.2727V56.7727H91.9148V55.2727ZM76.5966 55.2727V53.7727C69.3249 53.7727 63.1568 55.1395 58.1742 57.9683L58.9148 59.2727L59.6554 60.5772C64.0667 58.0727 69.6865 56.7727 76.5966 56.7727V55.2727ZM58.9148 59.2727L58.1679 57.9719C53.1903 60.83 49.4645 64.965 47.0057 70.3296L48.3693 70.9545L49.7329 71.5795C51.9408 66.7623 55.2453 63.1094 59.6617 60.5735L58.9148 59.2727ZM48.3693 70.9545L47.0043 70.3326C44.5591 75.6995 43.3693 82.1669 43.3693 89.6818H44.8693H46.3693C46.3693 82.4695 47.5129 76.452 49.7343 71.5765L48.3693 70.9545ZM44.8693 89.6818H43.3693C43.3693 97.1377 44.5596 103.561 47.0057 108.898L48.3693 108.273L49.7329 107.648C47.5124 102.803 46.3693 96.832 46.3693 89.6818H44.8693ZM48.3693 108.273L47.0027 108.891C49.4272 114.25 53.0744 118.361 57.9387 121.163L58.6875 119.864L59.4363 118.564C55.1491 116.094 51.9175 112.477 49.736 107.654L48.3693 108.273ZM58.6875 119.864L57.9387 121.163C62.7983 123.963 68.7556 125.318 75.733 125.318V123.818V122.318C69.1345 122.318 63.7282 121.037 59.4363 118.564L58.6875 119.864ZM75.733 123.818V125.318H91.9148V123.818V122.318H75.733V123.818ZM91.9148 123.818H93.4148V55.2727H91.9148H90.4148V123.818H91.9148Z" fill="black"/>
<path d="M34.1761 97H4.03977V3.90909H35.1307C44.2519 3.90909 52.0852 5.77273 58.6307 9.5C65.1761 13.197 70.1913 18.5151 73.6761 25.4545C77.1913 32.3636 78.9489 40.6515 78.9489 50.3182C78.9489 60.0152 77.1761 68.3485 73.6307 75.3182C70.1155 82.2879 65.0246 87.6515 58.358 91.4091C51.6913 95.1364 43.6307 97 34.1761 97ZM18.0852 84.7273H33.4034C40.4943 84.7273 46.3883 83.3939 51.0852 80.7273C55.7822 78.0303 59.2974 74.1364 61.6307 69.0455C63.964 63.9242 65.1307 57.6818 65.1307 50.3182C65.1307 43.0152 63.964 36.8182 61.6307 31.7273C59.3277 26.6364 55.8883 22.7727 51.3125 20.1364C46.7367 17.5 41.0549 16.1818 34.267 16.1818H18.0852V84.7273Z" fill="white"/>
<path d="M4.03977 97H2.53977V98.5H4.03977V97ZM4.03977 3.90909V2.40909H2.53977V3.90909H4.03977ZM58.6307 9.5L57.8884 10.8035L57.893 10.8061L58.6307 9.5ZM73.6761 25.4545L72.3357 26.1277L72.3392 26.1347L73.6761 25.4545ZM73.6307 75.3182L72.2937 74.6381L72.2914 74.6427L73.6307 75.3182ZM58.358 91.4091L59.09 92.7184L59.0945 92.7158L58.358 91.4091ZM18.0852 84.7273H16.5852V86.2273H18.0852V84.7273ZM51.0852 80.7273L51.8258 82.0317L51.8321 82.0281L51.0852 80.7273ZM61.6307 69.0455L62.9943 69.6704L62.9957 69.6674L61.6307 69.0455ZM61.6307 31.7273L60.264 32.3455L60.2671 32.3523L61.6307 31.7273ZM51.3125 20.1364L50.5637 21.4361V21.4361L51.3125 20.1364ZM18.0852 16.1818V14.6818H16.5852V16.1818H18.0852ZM34.1761 97V95.5H4.03977V97V98.5H34.1761V97ZM4.03977 97H5.53977V3.90909H4.03977H2.53977V97H4.03977ZM4.03977 3.90909V5.40909H35.1307V3.90909V2.40909H4.03977V3.90909ZM35.1307 3.90909V5.40909C44.0464 5.40909 51.6124 7.22962 57.8884 10.8035L58.6307 9.5L59.3729 8.19653C52.5581 4.31583 44.4574 2.40909 35.1307 2.40909V3.90909ZM58.6307 9.5L57.893 10.8061C64.1702 14.3515 68.9798 19.4451 72.3357 26.1277L73.6761 25.4545L75.0166 24.7814C71.4028 17.5852 66.182 12.0424 59.3684 8.19393L58.6307 9.5ZM73.6761 25.4545L72.3392 26.1347C75.724 32.7875 77.4489 40.8308 77.4489 50.3182H78.9489H80.4489C80.4489 40.4723 78.6586 31.9398 75.0131 24.7744L73.6761 25.4545ZM78.9489 50.3182H77.4489C77.4489 59.8344 75.7093 67.9236 72.2937 74.6381L73.6307 75.3182L74.9676 75.9983C78.6429 68.7733 80.4489 60.1959 80.4489 50.3182H78.9489ZM73.6307 75.3182L72.2914 74.6427C68.9073 81.3525 64.0236 86.4939 57.6214 90.1024L58.358 91.4091L59.0945 92.7158C66.0257 88.8092 71.3238 83.2232 74.97 75.9937L73.6307 75.3182ZM58.358 91.4091L57.626 90.0998C51.2303 93.6756 43.4347 95.5 34.1761 95.5V97V98.5C43.8267 98.5 52.1523 96.5971 59.09 92.7184L58.358 91.4091ZM18.0852 84.7273V86.2273H33.4034V84.7273V83.2273H18.0852V84.7273ZM33.4034 84.7273V86.2273C40.6751 86.2273 46.8432 84.8605 51.8258 82.0317L51.0852 80.7273L50.3446 79.4228C45.9333 81.9273 40.3135 83.2273 33.4034 83.2273V84.7273ZM51.0852 80.7273L51.8321 82.0281C56.8097 79.17 60.5355 75.035 62.9943 69.6704L61.6307 69.0455L60.2671 68.4205C58.0592 73.2377 54.7547 76.8906 50.3383 79.4265L51.0852 80.7273ZM61.6307 69.0455L62.9957 69.6674C65.4409 64.3005 66.6307 57.8331 66.6307 50.3182H65.1307H63.6307C63.6307 57.5305 62.4871 63.548 60.2657 68.4235L61.6307 69.0455ZM65.1307 50.3182H66.6307C66.6307 42.8623 65.4404 36.4393 62.9943 31.1023L61.6307 31.7273L60.2671 32.3523C62.4876 37.197 63.6307 43.168 63.6307 50.3182H65.1307ZM61.6307 31.7273L62.9973 31.109C60.5728 25.7495 56.9256 21.6393 52.0613 18.8367L51.3125 20.1364L50.5637 21.4361C54.8509 23.9062 58.0825 27.5232 60.264 32.3455L61.6307 31.7273ZM51.3125 20.1364L52.0613 18.8367C47.2017 16.0367 41.2444 14.6818 34.267 14.6818V16.1818V17.6818C40.8655 17.6818 46.2718 18.9633 50.5637 21.4361L51.3125 20.1364ZM34.267 16.1818V14.6818H18.0852V16.1818V17.6818H34.267V16.1818ZM18.0852 16.1818H16.5852V84.7273H18.0852H19.5852V16.1818H18.0852Z" fill="black"/>
<defs>
<clipPath id="paint0_diamond_10_43_clip_path"><path d="M75.8239 43H105.96V136.091H74.8693C65.7481 136.091 57.9148 134.227 51.3693 130.5C44.8239 126.803 39.8087 121.485 36.3239 114.545C32.8087 107.636 31.0511 99.3485 31.0511 89.6818C31.0511 79.9848 32.8239 71.6515 36.3693 64.6818C39.8845 57.7121 44.9754 52.3485 51.642 48.5909C58.3087 44.8636 66.3693 43 75.8239 43ZM91.9148 55.2727H76.5966C69.5057 55.2727 63.6117 56.6061 58.9148 59.2727C54.2178 61.9697 50.7026 65.8636 48.3693 70.9545C46.036 76.0758 44.8693 82.3182 44.8693 89.6818C44.8693 96.9848 46.036 103.182 48.3693 108.273C50.6723 113.364 54.1117 117.227 58.6875 119.864C63.2633 122.5 68.9451 123.818 75.733 123.818H91.9148V55.2727Z"/></clipPath><linearGradient id="paint0_diamond_10_43" x1="0" y1="0" x2="500" y2="500" gradientUnits="userSpaceOnUse">
<stop stop-color="#FCD34D"/>
<stop offset="0.5" stop-color="#FBBF24"/>
<stop offset="1" stop-color="#D97706"/>
</linearGradient>
</defs>
</svg>
