<svg xmlns="http://www.w3.org/2000/svg" width="32" height="32" viewBox="0 0 32 32" fill="none">
  <defs>
    <linearGradient id="amberGradient" x1="2" y1="2" x2="30" y2="30" gradientUnits="userSpaceOnUse">
      <stop offset="0%" stop-color="#fbbf24" /> <!-- amber-400 -->
      <stop offset="100%" stop-color="#d97706" /> <!-- amber-600 -->
    </linearGradient>
    <filter id="glow" x="-20%" y="-20%" width="140%" height="140%">
      <feGaussianBlur stdDeviation="2" result="blur" />
      <feComposite in="SourceGraphic" in2="blur" operator="over" />
    </filter>
  </defs>
  
  <!-- Background Shape (Subtle Hexagon/Shield hint) -->
  <path d="M16 2 L28 9 V23 L16 30 L4 23 V9 Z" fill="#18181b" stroke="url(#amberGradient)" stroke-width="1.5" />

  <!-- Inner D20 stylized -->
  <path d="M16 5 L24 10 L16 27 L8 10 Z" fill="url(#amberGradient)" fill-opacity="0.2" stroke="url(#amberGradient)" stroke-width="1.5" stroke-linejoin="round"/>
  <path d="M8 10 L2 14 L16 27" stroke="url(#amberGradient)" stroke-width="1.5" stroke-linejoin="round" stroke-linecap="round"/>
  <path d="M24 10 L30 14 L16 27" stroke="url(#amberGradient)" stroke-width="1.5" stroke-linejoin="round" stroke-linecap="round"/>
  <path d="M8 10 L16 15 L24 10" stroke="url(#amberGradient)" stroke-width="1.5" stroke-linejoin="round" stroke-linecap="round"/>
  <path d="M2 14 L8 10 L16 5 L24 10 L30 14" stroke="url(#amberGradient)" stroke-width="1.5" stroke-linejoin="round" stroke-linecap="round"/>
  <path d="M2 14 L16 15 L30 14" stroke="url(#amberGradient)" stroke-width="1.5" stroke-linejoin="round" stroke-linecap="round"/>

  <!-- Highligts for depth -->
  <circle cx="16" cy="10" r="1.5" fill="#fde68a" />
</svg>