<svg width="16" height="16" viewBox="0 0 16 16" fill="none" xmlns="http://www.w3.org/2000/svg">
<g clip-path="url(#clip0_12_292)">
<rect width="16" height="16" rx="6" fill="black"/>
<g clip-path="url(#clip1_12_292)">
<g clip-path="url(#paint0_diamond_12_292_clip_path)" data-figma-skip-parse="true"><g transform="matrix(0.00616601 0.00661224 -0.00893938 0.00500028 5.25289 4.81628)"><rect x="0" y="0" width="1444.74" height="706.805" fill="url(#paint0_diamond_12_292)" opacity="1" shape-rendering="crispEdges"/><rect x="0" y="0" width="1444.74" height="706.805" transform="scale(1 -1)" fill="url(#paint0_diamond_12_292)" opacity="1" shape-rendering="crispEdges"/><rect x="0" y="0" width="1444.74" height="706.805" transform="scale(-1 1)" fill="url(#paint0_diamond_12_292)" opacity="1" shape-rendering="crispEdges"/><rect x="0" y="0" width="1444.74" height="706.805" transform="scale(-1)" fill="url(#paint0_diamond_12_292)" opacity="1" shape-rendering="crispEdges"/></g></g><path d="M9.89301 5.68567H12.6327V13.6649H9.80623C8.97703 13.6649 8.26491 13.5051 7.66986 13.1857C7.07483 12.8688 6.6189 12.413 6.3021 11.8181C5.98254 11.2259 5.82275 10.5155 5.82275 9.68697C5.82275 8.85579 5.98392 8.14151 6.30623 7.54411C6.62579 6.94671 7.0886 6.48697 7.69465 6.16489C8.30072 5.84541 9.0335 5.68567 9.89301 5.68567ZM11.3558 6.73761H9.96325C9.31863 6.73761 8.78281 6.85191 8.35582 7.08047C7.92882 7.31164 7.60925 7.64541 7.39714 8.08177C7.18502 8.52074 7.07895 9.0558 7.07895 9.68697C7.07895 10.3129 7.18502 10.8441 7.39714 11.2805C7.6065 11.7169 7.91917 12.048 8.33515 12.274C8.75114 12.5 9.26766 12.6129 9.88475 12.6129H11.3558V6.73761Z" data-figma-gradient-fill="{&#34;type&#34;:&#34;GRADIENT_DIAMOND&#34;,&#34;stops&#34;:[{&#34;color&#34;:{&#34;r&#34;:0.98823529481887817,&#34;g&#34;:0.82745099067687988,&#34;b&#34;:0.30196079611778259,&#34;a&#34;:1.0},&#34;position&#34;:0.0},{&#34;color&#34;:{&#34;r&#34;:0.98431372642517090,&#34;g&#34;:0.74901962280273438,&#34;b&#34;:0.14117647707462311,&#34;a&#34;:1.0},&#34;position&#34;:0.50},{&#34;color&#34;:{&#34;r&#34;:0.85098040103912354,&#34;g&#34;:0.46666666865348816,&#34;b&#34;:0.023529412224888802,&#34;a&#34;:1.0},&#34;position&#34;:1.0}],&#34;stopsVar&#34;:[{&#34;color&#34;:{&#34;r&#34;:0.98823529481887817,&#34;g&#34;:0.82745099067687988,&#34;b&#34;:0.30196079611778259,&#34;a&#34;:1.0},&#34;position&#34;:0.0},{&#34;color&#34;:{&#34;r&#34;:0.98431372642517090,&#34;g&#34;:0.74901962280273438,&#34;b&#34;:0.14117647707462311,&#34;a&#34;:1.0},&#34;position&#34;:0.50},{&#34;color&#34;:{&#34;r&#34;:0.85098040103912354,&#34;g&#34;:0.46666666865348816,&#34;b&#34;:0.023529412224888802,&#34;a&#34;:1.0},&#34;position&#34;:1.0}],&#34;transform&#34;:{&#34;m00&#34;:12.332015991210938,&#34;m01&#34;:-17.878768920898438,&#34;m02&#34;:8.0262670516967773,&#34;m10&#34;:13.224486351013184,&#34;m11&#34;:10.000555038452148,&#34;m12&#34;:-6.7962388992309570},&#34;opacity&#34;:1.0,&#34;blendMode&#34;:&#34;NORMAL&#34;,&#34;visible&#34;:true}"/>
<path d="M12.6328 5.6857H12.7691V5.55713H12.6328V5.6857ZM12.6328 13.6649V13.7935H12.7691V13.6649H12.6328ZM7.67 13.1857L7.73748 13.074L7.73706 13.0738L7.67 13.1857ZM6.30223 11.8181L6.42409 11.7604L6.42377 11.7598L6.30223 11.8181ZM6.30636 7.54414L6.42791 7.60243L6.42811 7.60204L6.30636 7.54414ZM7.69479 6.16492L7.62824 6.05269L7.62783 6.05292L7.69479 6.16492ZM11.356 6.73765H11.4923V6.60907H11.356V6.73765ZM8.35595 7.0805L8.28862 6.9687L8.28805 6.96901L8.35595 7.0805ZM7.39727 8.0818L7.2733 8.02824L7.27318 8.02849L7.39727 8.0818ZM7.39727 11.2805L7.52151 11.2275L7.52123 11.227L7.39727 11.2805ZM11.356 12.613V12.7415H11.4923V12.613H11.356ZM9.89314 5.6857V5.81427H12.6328V5.6857V5.55713H9.89314V5.6857ZM12.6328 5.6857H12.4964V13.6649H12.6328H12.7691V5.6857H12.6328ZM12.6328 13.6649V13.5364H9.80636V13.6649V13.7935H12.6328V13.6649ZM9.80636 13.6649V13.5364C8.99584 13.5364 8.30802 13.3803 7.73748 13.074L7.67 13.1857L7.60252 13.2974C8.22205 13.63 8.95848 13.7935 9.80636 13.7935V13.6649ZM7.67 13.1857L7.73706 13.0738C7.1664 12.7698 6.72917 12.3333 6.42409 11.7604L6.30223 11.8181L6.18037 11.8759C6.5089 12.4927 6.98351 12.9678 7.60293 13.2976L7.67 13.1857ZM6.30223 11.8181L6.42377 11.7598C6.11606 11.1897 5.95925 10.5002 5.95925 9.687H5.82289H5.68652C5.68652 10.5309 5.84928 11.2623 6.18069 11.8765L6.30223 11.8181ZM5.82289 9.687H5.95925C5.95925 8.87132 6.1174 8.17796 6.42791 7.60243L6.30636 7.54414L6.18482 7.48585C5.85071 8.10513 5.68652 8.84034 5.68652 9.687H5.82289ZM6.30636 7.54414L6.42811 7.60204C6.73576 7.02691 7.17973 6.58622 7.76175 6.27692L7.69479 6.16492L7.62783 6.05292C6.99772 6.38777 6.51608 6.86657 6.18461 7.48624L6.30636 7.54414ZM7.69479 6.16492L7.76133 6.27715C8.34276 5.97065 9.05145 5.81427 9.89314 5.81427V5.6857V5.55713C9.01581 5.55713 8.25894 5.72023 7.62824 6.05269L7.69479 6.16492ZM11.356 6.73765V6.60907H9.96339V6.73765V6.86622H11.356V6.73765ZM9.96339 6.73765V6.60907C9.30232 6.60907 8.74159 6.72623 8.28862 6.9687L8.35595 7.0805L8.42328 7.19232C8.8243 6.97765 9.3352 6.86622 9.96339 6.86622V6.73765ZM8.35595 7.0805L8.28805 6.96901C7.83554 7.21399 7.49683 7.56841 7.2733 8.02824L7.39727 8.0818L7.52123 8.13537C7.72195 7.72247 8.02236 7.40936 8.42385 7.192L8.35595 7.0805ZM7.39727 8.0818L7.27318 8.02849C7.05089 8.48851 6.94272 9.04286 6.94272 9.687H7.07909H7.21545C7.21545 9.0688 7.31941 8.55301 7.52136 8.13511L7.39727 8.0818ZM7.07909 9.687H6.94272C6.94272 10.3261 7.05093 10.8766 7.2733 11.3341L7.39727 11.2805L7.52123 11.227C7.31937 10.8117 7.21545 10.2999 7.21545 9.687H7.07909ZM7.39727 11.2805L7.27303 11.3335C7.49344 11.7928 7.82501 12.1452 8.26721 12.3854L8.33529 12.274L8.40336 12.1626C8.01361 11.9509 7.71983 11.6409 7.52151 11.2275L7.39727 11.2805ZM8.33529 12.274L8.26721 12.3854C8.709 12.6254 9.25057 12.7415 9.88488 12.7415V12.613V12.4844C9.28501 12.4844 8.79353 12.3746 8.40336 12.1626L8.33529 12.274ZM9.88488 12.613V12.7415H11.356V12.613V12.4844H9.88488V12.613ZM11.356 12.613H11.4923V6.73765H11.356H11.2196V12.613H11.356Z" fill="black"/>
<path d="M6.10685 10.3143H3.36719V2.33508H6.19364C7.02284 2.33508 7.73495 2.49482 8.33 2.8143C8.92504 3.13119 9.38096 3.58703 9.69776 4.18183C10.0173 4.77404 10.1771 5.48443 10.1771 6.31301C10.1771 7.14418 10.0159 7.85846 9.69364 8.45586C9.37407 9.05327 8.91126 9.513 8.30521 9.83508C7.69914 10.1546 6.96636 10.3143 6.10685 10.3143ZM4.64404 9.26236H6.03661C6.68124 9.26236 7.21705 9.14807 7.64404 8.9195C8.07104 8.68833 8.39061 8.35457 8.60273 7.9182C8.81484 7.47924 8.92091 6.94417 8.92091 6.31301C8.92091 5.68704 8.81484 5.15586 8.60273 4.7195C8.39336 4.28314 8.08069 3.95196 7.66471 3.726C7.24873 3.50002 6.7322 3.38703 6.11512 3.38703H4.64404V9.26236Z" fill="white"/>
<path d="M3.36732 10.3143H3.23096V10.4429H3.36732V10.3143ZM3.36732 2.33511V2.20654H3.23096V2.33511H3.36732ZM8.33013 2.81434L8.26265 2.92606L8.26307 2.92629L8.33013 2.81434ZM9.6979 4.18186L9.57604 4.23957L9.57636 4.24017L9.6979 4.18186ZM9.69377 8.4559L9.57222 8.3976L9.57201 8.398L9.69377 8.4559ZM8.30534 9.83512L8.37189 9.94734L8.3723 9.94712L8.30534 9.83512ZM4.64418 9.26239H4.50781V9.39096H4.64418V9.26239ZM7.64418 8.91953L7.71151 9.03134L7.71208 9.03103L7.64418 8.91953ZM8.60286 7.91824L8.72682 7.9718L8.72695 7.97154L8.60286 7.91824ZM8.60286 4.71953L8.47861 4.77252L8.4789 4.7731L8.60286 4.71953ZM4.64418 3.38706V3.25849H4.50781V3.38706H4.64418ZM6.10699 10.3143V10.1858H3.36732V10.3143V10.4429H6.10699V10.3143ZM3.36732 10.3143H3.50368V2.33511H3.36732H3.23096V10.3143H3.36732ZM3.36732 2.33511V2.46369H6.19377V2.33511V2.20654H3.36732V2.33511ZM6.19377 2.33511V2.46369C7.00429 2.46369 7.69211 2.61973 8.26265 2.92606L8.33013 2.81434L8.39761 2.70261C7.77808 2.36998 7.04165 2.20654 6.19377 2.20654V2.33511ZM8.33013 2.81434L8.26307 2.92629C8.83372 3.23018 9.27096 3.66677 9.57604 4.23957L9.6979 4.18186L9.81976 4.12417C9.49123 3.50735 9.01661 3.03226 8.3972 2.70239L8.33013 2.81434ZM9.6979 4.18186L9.57636 4.24017C9.88407 4.81041 10.0409 5.49983 10.0409 6.31304H10.1772H10.3136C10.3136 5.4691 10.1509 4.73775 9.81944 4.12357L9.6979 4.18186ZM10.1772 6.31304H10.0409C10.0409 7.12871 9.88273 7.82207 9.57222 8.3976L9.69377 8.4559L9.81531 8.51419C10.1494 7.8949 10.3136 7.1597 10.3136 6.31304H10.1772ZM9.69377 8.4559L9.57201 8.398C9.26437 8.97312 8.8204 9.41381 8.23838 9.72311L8.30534 9.83512L8.3723 9.94712C9.00241 9.61227 9.48405 9.13347 9.81552 8.5138L9.69377 8.4559ZM8.30534 9.83512L8.2388 9.72289C7.65737 10.0294 6.94868 10.1858 6.10699 10.1858V10.3143V10.4429C6.98431 10.4429 7.74119 10.2798 8.37189 9.94734L8.30534 9.83512ZM4.64418 9.26239V9.39096H6.03674V9.26239V9.13382H4.64418V9.26239ZM6.03674 9.26239V9.39096C6.69781 9.39096 7.25854 9.27381 7.71151 9.03134L7.64418 8.91953L7.57685 8.80772C7.17582 9.02239 6.66493 9.13382 6.03674 9.13382V9.26239ZM7.64418 8.91953L7.71208 9.03103C8.16459 8.78605 8.5033 8.43162 8.72682 7.9718L8.60286 7.91824L8.4789 7.86466C8.27818 8.27757 7.97777 8.59067 7.57628 8.80804L7.64418 8.91953ZM8.60286 7.91824L8.72695 7.97154C8.94924 7.51152 9.05741 6.95717 9.05741 6.31304H8.92104H8.78468C8.78468 6.93124 8.68071 7.44702 8.47877 7.86492L8.60286 7.91824ZM8.92104 6.31304H9.05741C9.05741 5.67396 8.9492 5.12342 8.72682 4.66596L8.60286 4.71953L8.4789 4.7731C8.68076 5.18836 8.78468 5.70016 8.78468 6.31304H8.92104ZM8.60286 4.71953L8.7271 4.66654C8.50669 4.20715 8.17512 3.85485 7.73291 3.61462L7.66484 3.72603L7.59677 3.83743C7.98651 4.04915 8.2803 4.35918 8.47861 4.77252L8.60286 4.71953ZM7.66484 3.72603L7.73291 3.61462C7.29113 3.37462 6.74956 3.25849 6.11525 3.25849V3.38706V3.51563C6.71511 3.51563 7.2066 3.62548 7.59677 3.83743L7.66484 3.72603ZM6.11525 3.38706V3.25849H4.64418V3.38706V3.51563H6.11525V3.38706ZM4.64418 3.38706H4.50781V9.26239H4.64418H4.78054V3.38706H4.64418Z" fill="black"/>
</g>
</g>
<defs>
<clipPath id="paint0_diamond_12_292_clip_path"><path d="M9.89301 5.68567H12.6327V13.6649H9.80623C8.97703 13.6649 8.26491 13.5051 7.66986 13.1857C7.07483 12.8688 6.6189 12.413 6.3021 11.8181C5.98254 11.2259 5.82275 10.5155 5.82275 9.68697C5.82275 8.85579 5.98392 8.14151 6.30623 7.54411C6.62579 6.94671 7.0886 6.48697 7.69465 6.16489C8.30072 5.84541 9.0335 5.68567 9.89301 5.68567ZM11.3558 6.73761H9.96325C9.31863 6.73761 8.78281 6.85191 8.35582 7.08047C7.92882 7.31164 7.60925 7.64541 7.39714 8.08177C7.18502 8.52074 7.07895 9.0558 7.07895 9.68697C7.07895 10.3129 7.18502 10.8441 7.39714 11.2805C7.6065 11.7169 7.91917 12.048 8.33515 12.274C8.75114 12.5 9.26766 12.6129 9.88475 12.6129H11.3558V6.73761Z"/></clipPath><linearGradient id="paint0_diamond_12_292" x1="0" y1="0" x2="500" y2="500" gradientUnits="userSpaceOnUse">
<stop stop-color="#FCD34D"/>
<stop offset="0.5" stop-color="#FBBF24"/>
<stop offset="1" stop-color="#D97706"/>
</linearGradient>
<clipPath id="clip0_12_292">
<rect width="16" height="16" fill="white"/>
</clipPath>
<clipPath id="clip1_12_292">
<rect width="10" height="12" fill="white" transform="translate(3 2)"/>
</clipPath>
</defs>
</svg>
